<svg xmlns="http://www.w3.org/2000/svg" viewBox="0 0 70.29 13.11"><defs><style>.cls-1{fill:#be0000;}.cls-2{fill:#231f20;}.cls-3{fill:#fff;}.cls-4{fill:none;}</style></defs><title>landscapelan</title><g id="Layer_2" data-name="Layer 2"><g id="Layer_1-2" data-name="Layer 1"><path class="cls-1" d="M43.19,0H9.78a2.36,2.36,0,0,0-1.7.73L3.64,5.28a1.86,1.86,0,0,0,0,2.54l.41.41A5.91,5.91,0,0,0,5.32,6.8s0,0,0-.06a.73.73,0,1,1,1.46,0,.74.74,0,0,1-.68.76A7.48,7.48,0,0,1,4.78,9l3.3,3.39a2.36,2.36,0,0,0,1.7.73H43.19A1.56,1.56,0,0,0,44.7,11.5V1.6A1.56,1.56,0,0,0,43.19,0Z"/><path class="cls-2" d="M6.22,6.28a.45.45,0,0,0-.45.45s0,0,0,.06a3.83,3.83,0,0,1-.24.31A8.11,8.11,0,0,1,4.26,8.39a3.4,3.4,0,0,1-1.47.76,1.66,1.66,0,0,1-1.33-.34,1.83,1.83,0,0,1-.67-2.2A3.09,3.09,0,0,1,3.63,5l.71-.64C2,4.18.63,5.29.19,6.36a2.45,2.45,0,0,0,.88,3,2.28,2.28,0,0,0,1.41.49,3,3,0,0,0,.42,0,4.31,4.31,0,0,0,1.84-.94A9.26,9.26,0,0,0,6.07,7.48a3.78,3.78,0,0,0,.24-.32.43.43,0,0,0,.36-.43A.45.45,0,0,0,6.22,6.28Z"/><path class="cls-3" d="M14.45,7.7l1.07-2.9a1.51,1.51,0,0,1,1.82-.59c.19.13.13.3.06.46-.74,1.81-1.49,3.62-2.22,5.43a.66.66,0,0,1-.72.42c-.34,0-.64,0-.79-.41-.25-.66-.53-1.3-.85-2.08-.29.73-.56,1.33-.78,2a.7.7,0,0,1-.76.54.74.74,0,0,1-.84-.51q-1-2.61-2.12-5.19c-.2-.49-.08-.67.45-.66,1.61,0,1.2-.16,1.68,1.18a18.58,18.58,0,0,0,.86,2.21c.26-.8.51-1.6.77-2.4a1.34,1.34,0,0,1,1.88-1c.18,0,.26.14.23.32a1.34,1.34,0,0,1-.07.18c-.14.45-.54.87-.45,1.31A9.6,9.6,0,0,0,14.45,7.7Z"/><path d="M47.72,9.79a1.26,1.26,0,0,1-1.64.69c-.25-.1-.28-.29-.28-.52,0-2.37,0-4.75,0-7.12,0-.42.18-.59.58-.58h.26c1.07,0,1.09,0,1.09,1.07V4.84a2.35,2.35,0,0,1,1.69-.78,3.26,3.26,0,0,1,1.73.64,3.46,3.46,0,0,1,1.07,3.63,3,3,0,0,1-2.68,2.26A2.38,2.38,0,0,1,47.72,9.79Zm1.41-.92a1.44,1.44,0,0,0,1.45-1.55,1.52,1.52,0,0,0-1.46-1.58,1.6,1.6,0,0,0-1.54,1.59A1.51,1.51,0,0,0,49.13,8.87Z"/><path class="cls-3" d="M29.89,9.77a2.8,2.8,0,0,1-4.52-1,3.29,3.29,0,0,1,1.49-4.31c1.26-.62,2-.47,3.22.65.08-.73.44-1,1.15-.95.36,0,.55.18.55.56V10a.48.48,0,0,1-.56.55C30.66,10.49,30,10.71,29.89,9.77Zm-1.58-.9a1.54,1.54,0,0,0,1.57-1.54,1.63,1.63,0,0,0-1.56-1.59,1.5,1.5,0,0,0-1.45,1.58A1.41,1.41,0,0,0,28.31,8.87Z"/><path class="cls-3" d="M41.86,5c.39-.89.58-1,1.3-.89.31,0,.46.19.46.5V10a.46.46,0,0,1-.33.49,1.28,1.28,0,0,1-1.63-.69,2.24,2.24,0,0,1-2.11.76,3.29,3.29,0,0,1,.63-6.51A2.44,2.44,0,0,1,41.86,5ZM38.71,7.31a1.41,1.41,0,0,0,1.42,1.56A1.51,1.51,0,0,0,41.7,7.34a1.6,1.6,0,0,0-1.53-1.6A1.48,1.48,0,0,0,38.71,7.31Z"/><path class="cls-3" d="M20.17,4.7A2.27,2.27,0,0,1,24,6.07a29.8,29.8,0,0,1,.1,4,.4.4,0,0,1-.45.43h-.07c-1.34.12-1.36.11-1.36-1.26,0-.75,0-1.51,0-2.27s-.41-1.15-1-1.13a1,1,0,0,0-1,1.14c0,1,0,1.95,0,2.92,0,.45-.17.6-.61.61-1.32,0-1.32.05-1.32-1.28V3.15c0-.89,0-.89.92-.89.11,0,.22,0,.33,0,.49,0,.71.15.69.67S20.17,4.05,20.17,4.7Z"/><path d="M56,8.42c.46-1.34.88-2.49,1.24-3.65a.76.76,0,0,1,.88-.62c1.45,0,1.47-.17.87,1.32-.94,2.31-1.85,4.63-2.77,7a1.57,1.57,0,0,1-1.84.5.27.27,0,0,1-.11-.28,1.14,1.14,0,0,1,.11-.37,3.51,3.51,0,0,0-.06-3.67c-.59-1.17-1-2.42-1.49-3.64-.29-.73-.25-.79.5-.8a5.61,5.61,0,0,0,.58,0c.44-.06.65.13.79.55C55,5.89,55.46,7.06,56,8.42Z"/><path d="M67.88,7.92c-.53,0-1.08,0-1.61,0s-.42.15-.25.45a1.65,1.65,0,0,0,2.25.38.9.9,0,0,1,1.38.51c.1.22,0,.35-.16.5a3.29,3.29,0,0,1-5.4-3.12A3.1,3.1,0,0,1,70,5.94a2.35,2.35,0,0,1,.14.37c.36,1.32.14,1.61-1.22,1.61ZM66,6.49h2c.11,0,.27.07.33-.09s-.07-.23-.15-.32A1.24,1.24,0,0,0,66,6.49Z"/><path class="cls-3" d="M33.33,8.19c0-.41,0-.82,0-1.23s.15-.78-.51-.94c-.46-.11-.15-.77-.21-1.18A.37.37,0,0,1,33,4.35c.41,0,.34-.27.36-.52s-.15-.73.18-.9A6,6,0,0,1,35,2.41c.25-.07.3.2.31.39a5.06,5.06,0,0,1,0,1.1c-.05.37.07.45.4.44s.64-.1.73.24a2,2,0,0,1,0,1.38c-.14.27-.47.15-.72.15s-.39.07-.38.4c0,1.1,0,2.2,0,3.3,0,.53-.22.71-.74.72-1.23,0-1.23,0-1.23-1.18Z"/><path d="M60.47,8.21V6.85c0-.36.15-.81-.5-.78-.18,0-.26-.24-.23-.41.1-.5-.4-1.29.65-1.37.15,0,0-.31.08-.48s-.16-.72.18-.89a7.43,7.43,0,0,1,1.46-.51c.18-.05.28.14.28.34s0,.48,0,.71c-.06.57,0,1,.75.89.31,0,.46.18.44.5s0,.47,0,.71c0,.43-.18.61-.58.54s-.63.16-.62.64c0,1,0,2.07,0,3.1,0,.53-.2.67-.68.68-1.25,0-1.25,0-1.25-1.21Z"/><path class="cls-4" d="M6.4,6.46a.32.32,0,0,1,.09.45s-.18.26-.42.57l.15,0a.78.78,0,1,0-.78-.77.75.75,0,0,0,.1.36c.25-.31.4-.54.41-.54A.33.33,0,0,1,6.4,6.46Z"/><path class="cls-4" d="M5.54,6.71l.8.7-.07.09A.76.76,0,0,0,7,6.74a.78.78,0,1,0-1.56,0s0,0,0,.06l.09-.09Z"/></g></g></svg>