<svg viewBox="0 0 512 512" xmlns="http://www.w3.org/2000/svg"><path d="m512 256c0 141.386719-114.613281 256-256 256s-256-114.613281-256-256 114.613281-256 256-256 256 114.613281 256 256zm0 0" fill="#84deea"/><path d="m188.277344 102.226562c1.933594-2.054687 5.183594-2.105468 7.175781-.109374l12.21875 12.21875c3.523437 3.523437 5.15625 8.515624 4.390625 13.4375l-2.164062 13.949218c-.207032 1.335938.945312 2.492188 2.285156 2.285156l13.949218-2.164062c4.921876-.765625 9.914063.867188 13.4375 4.386719 3.523438 3.523437 5.152344 8.515625 4.390626 13.441406l-2.164063 13.949219c-.207031 1.339844.945313 2.492187 2.28125 2.28125l13.949219-2.164063c4.925781-.761719 9.917968.867188 13.441406 4.390625 3.519531 3.523438 5.152344 8.515625 4.386719 13.4375l-2.164063 13.953125c-.207031 1.335938.949219 2.488281 2.285156 2.28125l13.949219-2.164062c4.921875-.765625 9.914063.867187 13.4375 4.390625 3.523438 3.523437 5.15625 8.515625 4.390625 13.4375l-2.164062 13.949218c-.207032 1.339844.945312 2.492188 2.28125 2.285157l13.949218-2.164063c4.925782-.765625 9.917969.867188 13.441407 4.390625 3.523437 3.519531 5.152343 8.515625 4.390625 13.4375l-2.164063 13.949219c-.207031 1.335938.945313 2.492188 2.28125 2.28125l13.949219-2.164062c4.925781-.761719 9.917969.867187 13.4375 4.390624 3.523438 3.523438 5.15625 8.515626 4.390625 13.441407l-2.164063 13.949219c-.207031 1.335937.945313 2.488281 2.285157 2.28125l13.949219-2.164063c4.921874-.765625 9.914062.867187 13.4375 4.390625l10.996093 10.992188c1.984375 1.988281 1.945313 5.21875-.085937 7.15625l-47.910156 43.84375-217.640626-217.636719zm0 0" fill="#962437"/><path d="m457.34375 282.054688c0 40.609374-41.9375 24.996093-93.671875 24.996093s-93.671875 15.613281-93.671875-24.996093c0-40.613282 41.9375-85.710938 93.671875-85.710938s93.671875 45.097656 93.671875 85.710938zm-34.664062-135.511719c36.582031-36.582031 34.347656-98.125 5.632812-126.84375-28.71875-28.714844-47.332031 11.980469-83.910156 48.5625-36.582032 36.582031-77.28125 55.195312-48.5625 83.914062 28.714844 28.714844 90.257812 30.945313 126.839844-5.632812zm-186.875-21.09375c-36.289063-18.230469-41.160157 26.253906-64.386719 72.480469-23.222657 46.230468-56.003907 76.695312-19.714844 94.925781s95.414063 1 118.640625-45.226563c23.222656-46.230468 1.753906-103.949218-34.539062-122.179687zm0 0" fill="#fdbf43"/><path d="m457.34375 282.054688c0 40.609374-41.9375 24.996093-93.671875 24.996093s-93.671875 15.613281-93.671875-24.996093c0-4.585938.539062-9.226563 1.558594-13.851563 8.035156 25.582031 46.21875 13.296875 92.113281 13.296875s84.078125 12.285156 92.113281-13.296875c1.019532 4.625 1.558594 9.265625 1.558594 13.851563zm-150.609375-121.191407c-12.40625-23.773437 23.277344-42.085937 55.730469-74.539062s50.765625-68.136719 74.535156-55.726563c-2.546875-3.996094-5.445312-7.65625-8.6875-10.898437-28.71875-28.714844-47.332031 11.980469-83.910156 48.5625-36.582032 36.582031-77.28125 55.195312-48.5625 83.910156 3.238281 3.242187 6.902344 6.140625 10.894531 8.691406zm-135.3125 37.070313c-23.226563 46.226562-56.007813 76.691406-19.71875 94.921875 4.097656 2.058593 8.484375 3.660156 13.078125 4.824219-19.253906-18.664063 8.863281-47.269532 29.464844-88.277344 20.605468-41.011719 26.769531-80.644532 53.234375-76.339844-3.675781-2.992188-7.578125-5.554688-11.675781-7.613281-36.289063-18.230469-41.160157 26.253906-64.382813 72.484375zm0 0" fill="#fcb30b"/><path d="m389.21875 200.0625c5.9375 1.75 11.636719 4.074219 17.03125 6.875v102.355469c-5.394531-.371094-11.09375-.828125-17.03125-1.230469zm-34.0625-3.300781v110.421875c2.804688-.085938 5.644531-.136719 8.515625-.136719s5.710937.050781 8.515625.136719v-110.421875c-2.804688-.269531-5.640625-.417969-8.515625-.417969-2.871094 0-5.710937.148438-8.515625.417969zm68.125 21.347656v91.890625c6.464844-.015625 12.199219-.519531 17.03125-1.886719v-72.414062c-4.835938-6.398438-10.566406-12.351563-17.03125-17.589844zm-136.25 17.589844v72.414062c4.835938 1.367188 10.566406 1.871094 17.03125 1.886719v-91.890625c-6.464844 5.238281-12.195312 11.191406-17.03125 17.589844zm34.0625 73.59375c5.394531-.367188 11.09375-.824219 17.03125-1.230469v-108c-5.9375 1.75-11.636719 4.074219-17.03125 6.875zm4.527344-223.683594c-4.484375 3.914063-8.839844 7.617187-12.914063 11.171875l72.375 72.375c5.796875-1.832031 11.46875-4.21875 16.90625-7.179688zm24.707031-23.464844c-1.925781 2.042969-3.894531 4.085938-5.925781 6.117188s-4.074219 4.003906-6.117188 5.925781l78.078125 78.082031c2.175781-1.792969 4.285157-3.699219 6.316407-5.726562 2.03125-2.03125 3.933593-4.144531 5.730468-6.316407zm14.8125 111.160157-64.976563-64.980469c-4.558593 4.582031-8.257812 8.992187-10.710937 13.378906l51.203125 51.203125c7.949219 1.109375 16.210938 1.261719 24.484375.398438zm83.90625-108.785157-51.207031-51.203125c-4.382813 2.453125-8.792969 6.148438-13.375 10.707032l64.976562 64.980468c.867188-8.277344.710938-16.539062-.394531-24.484375zm-87.296875-15.039062 76.367188 76.367187c2.957031-5.4375 5.34375-11.109375 7.179687-16.90625l-72.375-72.375c-3.554687 4.078125-7.261719 8.429688-11.171875 12.914063zm-211.449219 185.492187 91.460938 45.949219c4.925781-3.566406 9.558593-7.613281 13.789062-12.132813l-96.503906-48.484374c-3.027344 5.125-5.996094 10.011718-8.746094 14.667968zm21.121094-37.039062c-1.289063 2.5625-2.609375 5.078125-3.945313 7.546875l98.671876 49.570312c1.5-2.386719 2.90625-4.855469 4.195312-7.421875s2.429688-5.167968 3.449219-7.796875l-98.671875-49.570312c-1.183594 2.546875-2.410156 5.105469-3.699219 7.671875zm-35.359375 68.003906 64.707031 32.507812c7.890625-1.445312 15.785157-3.894531 23.367188-7.320312l-82.113281-41.25c-2.886719 5.78125-5.011719 11.128906-5.960938 16.0625zm133.519531-104.460938-64.710937-32.507812c-3.390625 3.707031-6.410156 8.605469-9.328125 14.375l82.109375 41.25c-1.777344-8.128906-4.523438-15.921875-8.070313-23.117188zm-81.054687-2.597656c-2.09375 4.984375-4.242188 10.28125-6.542969 15.769532l96.503906 48.484374c1.101563-6.09375 1.582031-12.230468 1.5-18.308593zm0 0" fill="#fc9302"/><path d="m.585938 273.128906c13.164062-11.597656 26.578124-22.917968 40.273437-33.917968 9.71875-7.808594 19.5625-15.472657 29.539063-22.972657l31.589843-23.738281 35.355469-35.355469 23.894531-25.390625c1.933594-2.054687 5.183594-2.101562 7.179688-.109375l10.972656 10.972657c3.523437 3.523437 5.152344 8.519531 4.390625 13.441406l-2.164062 13.949218c-.210938 1.335938.945312 2.488282 2.28125 2.28125l13.949218-2.164062c4.925782-.761719 9.917969.867188 13.4375 4.390625 3.523438 3.523437 5.15625 8.515625 4.390625 13.441406l-2.164062 13.949219c-.207031 1.335938.949219 2.488281 2.285156 2.28125l13.949219-2.164062c4.921875-.765626 9.914062.867187 13.4375 4.390624 3.523437 3.523438 5.15625 8.515626 4.390625 13.4375l-2.164063 13.949219c-.207031 1.339844.945313 2.492188 2.28125 2.285157l13.949219-2.164063c4.925781-.765625 9.917969.867187 13.441406 4.390625 3.523438 3.523438 5.152344 8.515625 4.390625 13.4375l-2.164062 13.949219c-.207032 1.335937.945312 2.492187 2.28125 2.28125l13.949218-2.164063c4.925782-.761718 9.914063.867188 13.4375 4.390625 3.523438 3.523438 5.15625 8.515625 4.390626 13.441407l-2.164063 13.949218c-.207031 1.335938.945313 2.488282 2.285156 2.28125l13.949219-2.164062c4.921875-.765625 9.914062.867187 13.4375 4.390625 3.523438 3.523437 5.152344 8.515625 4.390625 13.4375l-2.164063 13.949219c-.207031 1.335937.945313 2.492187 2.28125 2.285156l13.953126-2.164063c4.921874-.765625 9.914062.867188 13.4375 4.390625l9.578124 9.578125c1.988282 1.984375 1.949219 5.21875-.085937 7.15625l-25.257813 24.066407-.023437-.023438-35.355469 35.355469-.214844.21875-23.554687 31.339843c-7.476563 9.953126-15.117187 19.765626-22.902344 29.457032-10.996093 13.695312-22.316406 27.109375-33.910156 40.273437-127.816406-8.359375-230.019531-110.507812-238.460937-238.296875zm0 0" fill="#e43950"/><path d="m326.921875 361.804688c-4.003906 3.511718-10.132813 3.066406-13.898437-.699219l-157.414063-157.410157c-3.902344-3.90625-10.234375-3.90625-14.140625 0-3.90625 3.902344-3.90625 10.234376 0 14.140626l157.652344 157.652343c3.90625 3.90625 3.90625 10.238281 0 14.144531-3.902344 3.902344-10.234375 3.902344-14.140625 0l-159.589844-159.589843c-3.523437-3.523438-9.097656-3.914063-13.078125-.921875l-16.578125 12.457031c-16.339844 12.28125-32.332031 24.992187-47.976563 38.097656-13.886718 11.628907-27.472656 23.597657-40.785156 35.855469-3.269531-13.738281-5.429687-27.90625-6.390625-42.402344 13.164063-11.597656 26.582031-22.917968 40.277344-33.917968 9.71875-7.808594 19.5625-15.472657 29.539063-22.972657l31.589843-23.738281 35.355469-35.355469 23.894531-25.386719c1.933594-2.058593 5.183594-2.105468 7.179688-.109374l10.972656 10.972656c3.523437 3.523437 5.152344 8.515625 4.390625 13.4375l-.746094 4.796875-13.703125 14.558593c-3.703125 3.9375-3.609375 10.105469.210938 13.925782l157.863281 157.867187c4.0625 4.058594 3.898438 10.742188-.484375 14.597657zm-290.125-36.507813c-9.027344 9.023437-13.824219 21.148437-14.722656 34.824219 25.714843 57.679687 72.125 104.089844 129.804687 129.804687 13.675782-.898437 25.796875-5.695312 34.824219-14.722656 27.335937-27.335937 15.941406-83.054687-25.457031-124.449219-41.394532-41.398437-97.113282-52.792968-124.449219-25.457031zm0 0" fill="#c92e43"/></svg>