<svg xmlns="http://www.w3.org/2000/svg" viewBox="0 0 169.16 169.16"><defs><style>.cls-1{fill:#111;}.cls-2{fill:#fff;}.cls-3{fill:none;}.cls-4{fill:#231f20;}.cls-5{fill:#ff3600;}</style></defs><title>whatabyte_1</title><g id="Layer_2" data-name="Layer 2"><g id="Layer_1-2" data-name="Layer 1"><rect class="cls-1" width="169.16" height="169.16"/><path class="cls-2" d="M43.17,58.35c1.41-3.8,2.64-7.13,3.87-10.47.73-2,4.82-3.28,6.55-2.1.68.46.48,1.06.23,1.66C51.14,54,48.44,60.49,45.79,67a2.35,2.35,0,0,1-2.59,1.5c-1.23,0-2.3-.1-2.84-1.49-.91-2.35-1.91-4.67-3.07-7.48-1.07,2.62-2,4.79-2.83,7a2.53,2.53,0,0,1-2.73,2c-1.46,0-2.43-.28-3.05-1.85C26.22,60.41,23.63,54.18,21,48c-.73-1.74-.29-2.41,1.62-2.38,5.83.1,4.36-.55,6.08,4.27a64,64,0,0,0,3.11,8c.92-2.88,1.85-5.77,2.76-8.65,1.08-3.38,3.34-4.55,6.81-3.54.63.19.94.51.81,1.16a5.87,5.87,0,0,1-.26.65c-.5,1.61-2,3.14-1.61,4.73C40.78,54.14,42,56,43.17,58.35Z"/><path class="cls-2" d="M98.9,65.82C93,70.64,85.6,68.76,82.57,62A11.83,11.83,0,0,1,88,46.5c4.53-2.23,7.37-1.72,11.61,2.33.28-2.62,1.6-3.8,4.16-3.42,1.3.19,2,.66,2,2,0,6.38,0,12.76,0,19.14a1.72,1.72,0,0,1-2,2C101.68,68.45,99.24,69.22,98.9,65.82ZM93.2,62.6A5.54,5.54,0,0,0,98.85,57a5.83,5.83,0,0,0-5.64-5.71C90.28,51.28,88,53.74,88,57S90.08,62.6,93.2,62.6Z"/><path class="cls-2" d="M142.11,48.68c1.39-3.21,2.08-3.64,4.69-3.21,1.09.18,1.66.68,1.66,1.83q0,9.68,0,19.37a1.65,1.65,0,0,1-1.2,1.77,4.65,4.65,0,0,1-5.88-2.51c-2.12,2.12-4.46,3.37-7.62,2.74A11.85,11.85,0,0,1,136,45.2C138.67,45.25,140.39,46.94,142.11,48.68Zm-11.38,8.26c0,3.35,2,5.64,5.12,5.66a5.45,5.45,0,0,0,5.66-5.52A5.76,5.76,0,0,0,136,51.3C133,51.23,130.77,53.67,130.73,56.94Z"/><path class="cls-2" d="M63.81,47.54c5.71-5,12.77-.95,13.7,4.93.77,4.81.26,9.64.37,14.46,0,1-.6,1.56-1.63,1.58H76c-4.85.42-4.9.37-4.9-4.56,0-2.73,0-5.46,0-8.18s-1.48-4.16-3.76-4.1c-2.07.06-3.47,1.63-3.51,4.13-.06,3.51-.07,7,0,10.52,0,1.63-.64,2.17-2.22,2.22-4.75.12-4.75.17-4.75-4.64v-22c0-3.2,0-3.2,3.31-3.2.39,0,.78,0,1.17,0,1.77-.16,2.6.54,2.49,2.41S63.81,45.19,63.81,47.54Z"/><path class="cls-2" d="M111.32,60.12c0-1.48,0-3,0-4.44s.55-2.8-1.85-3.39c-1.63-.41-.54-2.77-.76-4.23-.15-1,.29-1.78,1.34-1.78,1.49,0,1.24-1,1.3-1.9.07-1.12-.55-2.61.64-3.25a23.23,23.23,0,0,1,5.22-1.88c.89-.23,1.09.75,1.13,1.44a19.41,19.41,0,0,1,0,4c-.21,1.32.23,1.62,1.42,1.57,1,0,2.33-.34,2.64.87a7.17,7.17,0,0,1-.18,5c-.49,1-1.7.52-2.59.52-1.1,0-1.41.28-1.36,1.47.14,4,0,7.93.15,11.9,0,1.93-.79,2.57-2.66,2.58-4.43,0-4.43.08-4.43-4.24Z"/><rect class="cls-2" x="20.7" y="16.43" width="127.76" height="8.02"/><rect class="cls-2" x="20.7" y="146.26" width="127.76" height="7.38"/><path class="cls-3" d="M38,93.23A8.35,8.35,0,0,0,30,101.52a8.14,8.14,0,0,0,.57,2.94,15.64,15.64,0,0,0,10.33,2.62,21.3,21.3,0,0,0,3.08-.49,8.36,8.36,0,0,0,1.68-5.14C45.57,96.85,42.22,93.21,38,93.23Z"/><path class="cls-2" d="M22.15,117.93a6.58,6.58,0,0,0,2.11.41q-1.68-.74-3.33-1.53A2,2,0,0,0,22.15,117.93Z"/><path class="cls-2" d="M30.53,104.46a8.14,8.14,0,0,1-.57-2.94A8.35,8.35,0,0,1,38,93.23c4.2,0,7.55,3.62,7.6,8.22a8.36,8.36,0,0,1-1.68,5.14,16.41,16.41,0,0,0,10.74-7.9,17.06,17.06,0,0,0-6.07-10.88,16.81,16.81,0,0,0-9-3.34c-3.55-.35-6,1.78-8.81,4.06v-7.9c0-5.49-.1-5.59-5.69-5.56-.45,0-.9,0-1.35,0-2.07,0-3,.81-3,3,0,3.34,0,6.68,0,10,.92,2.61,1.83,5.21,3,7.72A20.2,20.2,0,0,0,30.53,104.46Z"/><path class="cls-2" d="M57.1,89.15c.16.4.31.81.47,1.21.35-1.76.71-3.53,1-5.31C55.94,85.2,55.77,85.83,57.1,89.15Z"/><path class="cls-2" d="M65,127.94a12.06,12.06,0,0,0-.4,1.25,1.46,1.46,0,0,0,.58,1.48c2.11,1.71,8.3.06,9.53-2.46-.21,0-.41,0-.63.06C71,128.3,68,128.11,65,127.94Z"/><path class="cls-2" d="M89.55,85.05c.44.82.89,1.61,1.38,2.35C91.45,85.69,91.08,85.2,89.55,85.05Z"/><path class="cls-2" d="M141.31,104.61c6.3,0,7.89-1.25,6.83-6.38-2.44,2.23-4.91,4.39-7.47,6.38Z"/><path class="cls-2" d="M124.84,116.36c6.6,3.45,14.74,2.52,19.44-2.17.76-.77,1.34-1.45.84-2.62-1.41-3.31-4.1-4.32-7.2-2.64a10.76,10.76,0,0,1-4.94,1.22c-3.06,2-6.22,3.75-9.43,5.4A13.28,13.28,0,0,0,124.84,116.36Z"/><path class="cls-2" d="M126,85.73a16.67,16.67,0,0,0-8.89,8.83A20.83,20.83,0,0,0,126,85.73Z"/><path class="cls-2" d="M107.31,96.73c.24-1.33,1-2,3.09-1.61s3.19-.61,3.07-2.84a35.32,35.32,0,0,1,0-3.71c.08-1.66-.71-2.86-2.29-2.6-4.14.69-4.25-1.66-3.94-4.63.13-1.22,0-2.47,0-3.71,0-1-.53-2-1.5-1.78a36.93,36.93,0,0,0-7.57,2.65c-1.79.92-.74,3.07-1,4.67-.13.86.34,2.42-.39,2.47-4,.3-3.69,2.62-3.43,4.86A18.81,18.81,0,0,0,107.31,96.73Z"/><path class="cls-4" d="M64.88,108.12c-2.86-5.71-5-11.79-7.31-17.76-.14.71-.25,1.42-.42,2.12a23,23,0,0,1-2.47,6.21,18.59,18.59,0,0,1-.5,8,15.85,15.85,0,0,1-14,11.8c-4,.48-6.52-1.81-9.49-4.18a6.47,6.47,0,0,1-6.45,4A116.4,116.4,0,0,0,65,127.94a3.55,3.55,0,0,1,.22-.65C69.11,120.81,68.16,114.64,64.88,108.12Z"/><path class="cls-1" d="M127.46,104.58c-2.27-.1-2.16.8-1.27,2.34,1.3,2.26,3.92,3.3,6.79,3.23,2.63-1.7,5.17-3.6,7.69-5.54H135.9C133.09,104.61,130.27,104.7,127.46,104.58Z"/><path class="cls-4" d="M155.81,69.21c-11.23-3.62-19.57-.53-25.78,9.6-1.34,2.19-2.61,4.42-3.82,6.67,0,.09-.12.16-.17.25a16.12,16.12,0,0,1,4.31-1.2c6.72-.83,13.8,3.32,16.61,9.76a15.35,15.35,0,0,1,.69,1.9c.21.75.36,1.41.49,2a130.94,130.94,0,0,0,12.57-13C169.63,74.39,169.27,73.55,155.81,69.21Z"/><path class="cls-1" d="M126.13,97.15h9.36a6.65,6.65,0,0,0,1,0c.61-.09,1.44.36,1.75-.45s-.4-1.21-.8-1.71C134.17,90.91,128.55,91.82,126.13,97.15Z"/><path class="cls-4" d="M116.09,97.91a15.94,15.94,0,0,1,1.06-3.35,20,20,0,0,1-9.08,2.22c-.27,0-.5,0-.76,0a8,8,0,0,0-.1,1.7c.17,5.4-.08,10.81.1,16.2.09,2.75-1.06,3.49-3.57,3.53-6.53.1-6.52.17-6.52-6.33v-5.74c0-2.37,0-4.73,0-7.09,0-1.86.8-4.19-2.58-4.08-1,0-1.4-1.21-1.21-2.12a7.73,7.73,0,0,0,0-2.3,23.83,23.83,0,0,1-2.47-3.1c-.31,1-.89,2.4-1.7,4.41-4.87,12-9.62,24.16-14.41,36.24a.91.91,0,0,1-.11.16,116.88,116.88,0,0,0,48.84-12.66A17.08,17.08,0,0,1,116.09,97.91Z"/><path class="cls-1" d="M62.73,85c2.3-.29,3.39.7,4.11,2.9,2,6.15,4.26,12.22,6.78,19.34,2.4-7,4.61-13,6.5-19.06.77-2.5,2-3.28,4.57-3.21,2.28.06,3.82,0,4.86.12-.07-.12-.15-.23-.22-.36-1.81-3.47-3.48-7-5.47-10.41C79.33,66.63,71,65.57,64.43,71.59c-2.94,2.68-4.33,6.11-5.15,9.82-.27,1.2-.47,2.43-.68,3.64.37,0,.62-.06,1.1-.06A27.82,27.82,0,0,0,62.73,85Z"/><path class="cls-1" d="M30.53,104.46a7.92,7.92,0,0,0,7.55,5.11,7.15,7.15,0,0,0,5.86-3,21.3,21.3,0,0,1-3.08.49A15.64,15.64,0,0,1,30.53,104.46Z"/><path class="cls-5" d="M30.71,114.35c3,2.37,5.52,4.66,9.49,4.18a15.85,15.85,0,0,0,14-11.8,18.59,18.59,0,0,0,.5-8,16.41,16.41,0,0,1-10.74,7.9,7.15,7.15,0,0,1-5.86,3,7.92,7.92,0,0,1-7.55-5.11,20.2,20.2,0,0,1-6.86-8.62c-1.14-2.51-2.05-5.11-3-7.72q0,13.56,0,27.1a4.41,4.41,0,0,0,.21,1.59q1.65.8,3.33,1.53A6.47,6.47,0,0,0,30.71,114.35Z"/><path class="cls-5" d="M89.23,91.81c.81-2,1.39-3.41,1.7-4.41-.49-.74-.94-1.53-1.38-2.35-1-.1-2.58-.06-4.86-.12-2.55-.07-3.8.71-4.57,3.21-1.89,6.1-4.1,12.09-6.5,19.06C71.1,100.08,68.85,94,66.84,87.86c-.72-2.2-1.81-3.19-4.11-2.9a27.82,27.82,0,0,1-3,0c-.48,0-.73,0-1.1.06-.32,1.78-.68,3.55-1,5.31,2.34,6,4.45,12,7.31,17.76,3.28,6.52,4.23,12.69.34,19.17a3.55,3.55,0,0,0-.22.65c3,.17,6,.36,9.08.33.22,0,.42-.05.63-.06a.91.91,0,0,0,.11-.16C79.61,116,84.36,103.86,89.23,91.81Z"/><path class="cls-5" d="M147,94.29c-2.81-6.44-9.89-10.59-16.61-9.76a16.12,16.12,0,0,0-4.31,1.2,20.83,20.83,0,0,1-8.89,8.83,15.94,15.94,0,0,0-1.06,3.35,17.08,17.08,0,0,0,7.46,17.64c3.21-1.65,6.37-3.42,9.43-5.4-2.87.07-5.49-1-6.79-3.23-.89-1.54-1-2.44,1.27-2.34,2.81.12,5.63,0,8.44,0h4.77c2.56-2,5-4.15,7.47-6.38-.13-.63-.28-1.29-.49-2A15.35,15.35,0,0,0,147,94.29Zm-10.47,2.85a6.65,6.65,0,0,1-1,0h-9.36c2.42-5.33,8-6.24,11.31-2.17.4.5,1.08,1,.8,1.71S137.1,97.05,136.49,97.14Z"/><path class="cls-5" d="M93.42,92.8c-.19.91.24,2.15,1.21,2.12,3.38-.11,2.56,2.22,2.58,4.08,0,2.36,0,4.72,0,7.09v5.74c0,6.5,0,6.43,6.52,6.33,2.51,0,3.66-.78,3.57-3.53-.18-5.39.07-10.8-.1-16.2a8,8,0,0,1,.1-1.7A18.81,18.81,0,0,1,93.4,90.5,7.73,7.73,0,0,1,93.42,92.8Z"/></g></g></svg>